<svg id="Layer_1" data-name="Layer 1" xmlns="http://www.w3.org/2000/svg" viewBox="0 0 206.96 121.45"><defs><style>.cls-1{font-size:63.97px;fill:#ef382a;font-family:SofiaProBlack, Sofia Pro;letter-spacing:0.06em;}.cls-2{letter-spacing:0.05em;}.cls-3{letter-spacing:0.06em;}.cls-4{letter-spacing:0.06em;}.cls-5{fill:#474e5e;}</style></defs><title>5Artboard 1</title><text class="cls-1" transform="translate(44.62 75.99)">e<tspan class="cls-2" x="39.98" y="0">n</tspan><tspan class="cls-3" x="80.86" y="0">t</tspan><tspan class="cls-4" x="108.43" y="0">si</tspan></text><path class="cls-5" d="M69.21,109.57v6a3.06,3.06,0,0,1-3.06,3.07H55.53a3.06,3.06,0,0,1-3.06-3.07v-7.71a3.07,3.07,0,0,0-2.38-3c-15.16-3.81-27.56-14.54-32.09-30a3.05,3.05,0,0,0-2.95-2.15H6.77A3.07,3.07,0,0,1,3.7,69.68V58.87a3.07,3.07,0,0,1,3.07-3.06h7.08a3,3,0,0,0,3-2.49C20,35.15,33.4,22.51,50.17,18.32a3.1,3.1,0,0,0,2.31-3V6.81a3.06,3.06,0,0,1,3.06-3.06h11a3.06,3.06,0,0,1,3.06,3.06V17.3A42.51,42.51,0,0,1,94.07,29.24a3.06,3.06,0,0,1-.1,4.39L86.34,40.8a3.08,3.08,0,0,1-4.16,0,28.69,28.69,0,0,0-19.19-7c-16.05,0-28.77,11.44-28.77,27.85S46.94,89.47,63,89.47a28.69,28.69,0,0,0,19.19-7,3.08,3.08,0,0,1,4.16,0L94,89.61a3.07,3.07,0,0,1,.1,4.39,42.2,42.2,0,0,1-22.43,11.61,3,3,0,0,0-2.43,3Z"/></svg>